<svg width="179" height="179" viewBox="0 0 179 179" fill="none" xmlns="http://www.w3.org/2000/svg">
<g id="Layer 3">
<g id="Layer 1">
<path id="Vector" d="M124.108 170.37C124.097 170.375 124.085 170.38 124.073 170.385C123.962 170.429 123.851 170.478 123.72 170.536L123.688 170.55C123.571 170.602 123.434 170.662 123.294 170.72C112.588 175.195 101.099 177.497 89.4955 177.492M124.108 170.37L171.038 118.44C171.834 116.202 172.539 113.908 173.148 111.559L174.598 111.943C174.599 111.942 174.599 111.941 174.599 111.94C174.816 111.122 175.007 110.311 175.187 109.511C175.269 109.168 175.344 108.828 175.416 108.501L175.429 108.441C175.498 108.127 175.564 107.826 175.636 107.524L175.642 107.496C175.691 107.269 175.749 106.984 175.786 106.699C175.885 106.262 175.973 105.769 176.052 105.328C176.096 105.079 176.138 104.846 176.177 104.649C176.345 103.807 176.482 102.906 176.592 102.04C176.654 101.55 176.714 101.105 176.773 100.658C176.817 100.33 176.861 100.002 176.906 99.6547C176.907 99.6445 176.909 99.6343 176.91 99.6241C176.926 99.4755 176.942 99.327 176.958 99.1792C176.994 98.8432 177.03 98.5106 177.068 98.187C177.07 98.1694 177.071 98.1517 177.073 98.134C177.086 97.9711 177.104 97.7897 177.122 97.5967C177.164 97.1616 177.211 96.6678 177.23 96.1948C177.282 95.6906 177.307 95.1921 177.331 94.7291C177.333 94.6842 177.335 94.6395 177.338 94.5952C177.391 93.9351 177.419 93.2822 177.443 92.6527L177.444 92.6369C177.472 91.6117 177.5 90.5369 177.5 89.4583V89.4577C177.48 40.9048 138.085 1.5 89.496 1.5C40.8869 1.5 1.5 40.9053 1.5 89.5101C1.5 138.115 40.887 177.492 89.4955 177.492M124.108 170.37L124.349 170.266C125.117 169.937 125.911 169.596 126.693 169.227C128.003 168.619 129.306 167.984 130.584 167.314L130.608 167.302M124.108 170.37L130.608 167.302M89.4955 177.492L89.496 175.992M89.4955 177.492L89.496 175.992M89.496 175.992C100.902 175.997 112.196 173.733 122.72 169.334L176 89.4583C175.98 41.7334 137.256 3 89.496 3C41.7157 3 3 41.7334 3 89.5101C3 137.287 41.7157 175.992 89.496 175.992ZM130.608 167.302C131.774 166.665 132.922 166.024 134.072 165.354C135.228 164.681 136.353 163.987 137.459 163.259C139.656 161.839 141.777 160.335 143.847 158.695C143.892 158.66 143.936 158.621 143.976 158.58M130.608 167.302L143.976 158.58M143.976 158.58L143.991 158.565C148.131 155.325 151.96 151.707 155.429 147.758C156.32 146.762 157.152 145.768 157.981 144.725C158.675 143.869 159.349 143.009 160.009 142.117L160.018 142.105M143.976 158.58L160.018 142.105M160.018 142.105L160.426 141.541C160.428 141.539 160.429 141.536 160.431 141.534C161.208 140.485 161.96 139.419 162.682 138.349C163.363 137.342 163.993 136.335 164.608 135.354L164.742 135.14C164.779 135.081 164.812 135.02 164.84 134.956M160.018 142.105L164.84 134.956M164.84 134.956C164.859 134.929 164.876 134.901 164.893 134.873C165.536 133.785 166.168 132.71 166.774 131.604C166.812 131.551 166.846 131.496 166.877 131.438C167.484 130.299 168.087 129.143 168.649 127.948C168.65 127.945 168.651 127.943 168.652 127.941L168.76 127.717C169.064 127.084 169.373 126.441 169.683 125.771L164.84 134.956ZM108.593 135.377C97.8677 139.833 85.9198 140.388 74.828 136.945C63.7353 133.503 54.2012 126.28 47.8849 116.534C41.5686 106.789 38.87 95.1376 40.2587 83.6082C41.6475 72.0787 47.0356 61.4011 55.4855 53.4337C63.9354 45.4662 74.912 40.7133 86.505 40.0023C98.098 39.2913 109.573 42.6672 118.934 49.5424C128.294 56.4176 134.947 66.3567 137.735 77.63C140.522 88.9025 139.269 100.795 134.192 111.239C128.875 122.127 119.775 130.708 108.593 135.377Z" fill="#FF3B0E" stroke="#03051A" stroke-width="3" stroke-linecap="round" stroke-linejoin="round"/>
<path id="Vector_2" d="M168.648 127.963C169.003 127.219 168.691 126.329 167.95 125.969L136.204 110.547C135.459 110.185 134.563 110.494 134.2 111.238C128.883 122.126 119.783 130.706 108.601 135.376C107.837 135.695 107.476 136.571 107.794 137.335L121.335 169.925C121.651 170.687 122.525 171.05 123.289 170.737C125.791 169.712 128.229 168.541 130.575 167.334C130.58 167.331 130.585 167.329 130.59 167.326C130.596 167.323 130.602 167.32 130.608 167.316C131.764 166.685 132.95 166.035 134.083 165.363C135.194 164.703 136.347 164.006 137.459 163.275C139.66 161.852 141.778 160.333 143.842 158.715C143.889 158.677 143.934 158.638 143.977 158.595L143.994 158.577C148.115 155.318 151.941 151.703 155.428 147.775L155.431 147.772C156.317 146.769 157.15 145.785 157.986 144.733L157.987 144.732C158.66 143.883 159.328 143.03 159.998 142.146C160.005 142.137 160.011 142.128 160.018 142.12L160.431 141.549C161.195 140.519 161.986 139.437 162.698 138.341L162.701 138.337C163.384 137.285 164.074 136.221 164.742 135.155C164.779 135.096 164.812 135.034 164.84 134.971C164.859 134.944 164.876 134.916 164.893 134.887C165.537 133.8 166.168 132.725 166.774 131.619C166.812 131.566 166.846 131.511 166.877 131.453C167.489 130.305 168.082 129.153 168.648 127.963Z" fill="#4265E5" stroke="#03051A" stroke-width="3" stroke-linecap="round" stroke-linejoin="round"/>
<path id="Vector_3" d="M177.423 92.7047L177.423 92.6968L177.423 92.6889C177.451 91.6637 177.48 90.5889 177.48 89.5103C177.48 40.9056 138.085 1.50024 89.4956 1.50024H87.9956V3.00024V38.3051V39.8038L89.4943 39.8051C97.9217 39.8123 106.209 41.9606 113.578 46.0484C120.947 50.1362 127.156 56.0294 131.623 63.1746C136.089 70.3198 138.666 78.4826 139.112 86.8967C139.558 95.3108 137.857 103.7 134.171 111.277L133.514 112.627L134.864 113.283L166.618 128.705L167.973 129.363L168.626 128.005C168.709 127.831 168.797 127.651 168.887 127.466C169.149 126.926 169.429 126.351 169.672 125.802L168.301 125.193L169.672 125.802C169.99 125.085 170.312 124.338 170.626 123.602C171.172 122.35 171.657 121.082 172.131 119.814L172.149 119.766L172.164 119.717C172.221 119.525 172.3 119.32 172.409 119.052L172.421 119.022L172.432 118.99C173.234 116.714 173.959 114.354 174.578 111.993C174.796 111.173 174.983 110.357 175.165 109.568L175.165 109.567C175.166 109.565 175.166 109.564 175.166 109.562C175.243 109.236 175.314 108.915 175.381 108.609L175.396 108.541C175.469 108.209 175.538 107.894 175.613 107.584L175.618 107.566L175.622 107.548C175.671 107.322 175.728 107.039 175.766 106.755C175.875 106.28 175.967 105.762 176.048 105.301C176.086 105.082 176.123 104.876 176.158 104.693C176.262 104.159 176.353 103.541 176.435 102.985C176.481 102.679 176.523 102.391 176.564 102.147C176.659 101.569 176.731 100.968 176.799 100.407C176.828 100.164 176.857 99.929 176.886 99.7066L176.888 99.6914L176.889 99.6761C176.906 99.5276 176.922 99.3792 176.937 99.2315C176.973 98.8954 177.009 98.5627 177.047 98.239L177.05 98.2126L177.053 98.186C177.066 98.0232 177.083 97.8418 177.102 97.6488C177.143 97.2144 177.19 96.7214 177.21 96.249C177.262 95.7448 177.288 95.2348 177.312 94.7517L177.317 94.646C177.371 93.9863 177.399 93.3338 177.423 92.7047Z" fill="#03051A" stroke="#03051A" stroke-width="3" stroke-miterlimit="10"/>
</g>
</g>
</svg>
