<svg width="32" height="32" viewBox="0 0 32 32" fill="none" xmlns="http://www.w3.org/2000/svg">
<g id="Frame" clip-path="url(#clip0_393_1660)">
<path id="Vector" d="M5.33325 10.6666C5.33325 9.2521 5.89515 7.89554 6.89535 6.89535C7.89554 5.89515 9.2521 5.33325 10.6666 5.33325H21.3333C22.7477 5.33325 24.1043 5.89515 25.1045 6.89535C26.1047 7.89554 26.6666 9.2521 26.6666 10.6666V21.3333C26.6666 22.7477 26.1047 24.1043 25.1045 25.1045C24.1043 26.1047 22.7477 26.6666 21.3333 26.6666H10.6666C9.2521 26.6666 7.89554 26.1047 6.89535 25.1045C5.89515 24.1043 5.33325 22.7477 5.33325 21.3333V10.6666Z" stroke="#141414" stroke-width="2" stroke-linecap="round" stroke-linejoin="round"/>
<path id="Vector_2" d="M12 16C12 17.0609 12.4214 18.0783 13.1716 18.8284C13.9217 19.5786 14.9391 20 16 20C17.0609 20 18.0783 19.5786 18.8284 18.8284C19.5786 18.0783 20 17.0609 20 16C20 14.9391 19.5786 13.9217 18.8284 13.1716C18.0783 12.4214 17.0609 12 16 12C14.9391 12 13.9217 12.4214 13.1716 13.1716C12.4214 13.9217 12 14.9391 12 16Z" stroke="#141414" stroke-width="2" stroke-linecap="round" stroke-linejoin="round"/>
<path id="Vector_3" d="M22 10V10.0133" stroke="#141414" stroke-width="2" stroke-linecap="round" stroke-linejoin="round"/>
</g>
<defs>
<clipPath id="clip0_393_1660">
<rect width="32" height="32" fill="white"/>
</clipPath>
</defs>
</svg>
