<svg width="117" height="151" viewBox="0 0 117 151" fill="none" xmlns="http://www.w3.org/2000/svg">
<g filter="url(#filter0_d_701_2821)">
<rect x="7" y="6" width="103.489" height="96" rx="13.617" fill="#FF3B0E"/>
<rect x="7.34043" y="6.34043" width="102.809" height="95.3191" rx="13.2766" stroke="white" stroke-width="0.680851"/>
<path d="M94.8375 61.249L91.1548 58.4568L93.8354 56.4339L95.1322 55.4536L93.8354 54.4856L90.5157 51.9757L92.4951 50.4834L90.9811 49.3386L84.5745 44.4801L63.0867 28.2262L61.7929 27.2427L61.2159 26.8083L58.7339 24.9282L58.0575 24.4163L56.7576 23.4359L53.5124 20.9788L30.098 38.6629L22.0718 44.7345L25.317 47.1885L23.2756 48.7398L21.9788 49.714L23.2756 50.6943L26.4339 53.0833L27.011 53.5238L24.3335 55.5466L23.0336 56.527L24.3335 57.5105L45.8182 73.7644L53.7389 79.7553L57.0554 82.2652L58.3554 83.2487L62.0318 86.0409L63.3318 87.0213L64.6317 86.044L67.3091 84.0181L68.6091 83.0284L94.8344 63.216L96.1281 62.2418L94.8375 61.249ZM88.6139 53.4059L89.2189 52.9467L92.5354 55.4598L89.858 57.4826L87.0006 55.3108L86.5414 54.9634L88.6139 53.4059ZM53.9623 32.2873L54.5548 32.7248L54.9985 33.0598C54.8806 33.5593 54.7782 34.0681 54.6882 34.58C54.2966 36.9217 54.2516 39.3083 54.5548 41.663C55.5383 49.3075 59.9252 55.5714 65.7238 58.7267L61.1476 62.1828L39.6784 45.9165L38.3785 44.933L37.8014 44.4956L53.9623 32.2873ZM53.1339 68.2327L61.07 74.2298L69.0993 68.1613L80.0293 59.9025L85.257 55.9531L85.8775 56.4215L88.5736 58.463L72.4158 70.6712L64.3866 76.7397L62.3483 78.2909L59.0286 75.781L51.0925 69.7746L29.6078 53.5238L31.6492 51.9726L53.1339 68.2327ZM24.5911 49.714L26.6294 48.1627L29.7908 50.5516L30.3555 50.9984L28.314 52.5496L27.737 52.1122L24.5911 49.714ZM69.2668 80.5868L67.334 82.0449L66.0123 83.0284L63.3318 85.0543L59.6491 82.2621L58.3554 81.2817L55.0357 78.7687L47.1089 72.7902L25.6335 56.527L28.3109 54.5042L49.7956 70.7581L57.7163 76.749L61.0359 79.2589L62.3328 80.2424L63.6296 79.262L65.671 77.7108L73.6971 71.6454L89.858 59.4496L93.5375 62.2418L69.2668 80.5868Z" fill="white"/>
</g>
<path d="M20.7013 131.696C19.7233 131.696 18.9805 131.908 18.4729 132.333C17.9652 132.758 17.6354 133.404 17.4833 134.27H17.2553L17.0473 131.939H14V150.39H17.29V142.475H17.5567C17.6856 143.334 18.0217 143.978 18.5649 144.406C19.1081 144.835 19.8282 145.049 20.7253 145.049C22.3185 145.049 23.5588 144.474 24.446 143.325C25.3333 142.175 25.7779 140.53 25.7796 138.39C25.7796 136.262 25.3351 134.617 24.446 133.456C23.557 132.295 22.3087 131.708 20.7013 131.696ZM21.7508 141.055C21.3063 141.654 20.6569 141.954 19.8025 141.954C18.8716 141.954 18.2199 141.671 17.8474 141.104C17.4749 140.538 17.2891 139.632 17.29 138.385C17.29 137.14 17.5002 136.23 17.9208 135.654C18.3413 135.078 18.9685 134.79 19.8025 134.791C20.6364 134.791 21.2796 135.105 21.7322 135.733C22.1847 136.36 22.4114 137.244 22.4123 138.385C22.4123 139.567 22.1918 140.457 21.7508 141.055Z" fill="#141414" fill-opacity="0.8"/>
<path d="M36.263 131.696C34.2003 131.696 33.1037 132.744 32.973 134.84H32.5169L32.1355 131.939H27.1145V134.755H29.3483V141.99H27.1145V144.806H34.9707V141.99H32.6249V139.271C32.6249 137.838 32.8232 136.734 33.2197 135.957C33.6162 135.18 34.2154 134.791 35.0174 134.791C35.6317 134.791 36.0763 134.957 36.351 135.29C36.6257 135.622 36.7653 136.168 36.7697 136.927H40.0477C40.0477 135.238 39.7218 133.944 39.0702 133.044C38.4185 132.144 37.4827 131.695 36.263 131.696Z" fill="#141414" fill-opacity="0.8"/>
<path d="M47.065 131.696C45.2122 131.696 43.7759 132.276 42.7562 133.437C41.7364 134.599 41.2266 136.243 41.2266 138.372C41.2266 140.492 41.7364 142.137 42.7562 143.306C43.7759 144.475 45.2122 145.056 47.065 145.049C48.9187 145.049 50.5777 144.466 51.5993 143.301C52.6208 142.135 53.1276 140.494 53.1276 138.366C53.1276 136.239 52.6181 134.592 51.5993 133.432C50.5804 132.272 48.9187 131.696 47.065 131.696ZM49.1214 141C48.692 141.62 47.8585 141.934 47.065 141.934C46.7061 141.947 46.3497 141.869 46.0299 141.705C45.71 141.542 45.4374 141.299 45.238 141C44.8059 140.378 44.5894 139.502 44.5886 138.373C44.5877 137.244 44.8041 136.366 45.238 135.738C45.4392 135.442 45.7125 135.202 46.0322 135.04C46.3518 134.879 46.7073 134.802 47.065 134.816C47.8652 134.816 48.692 135.123 49.1214 135.738C49.5508 136.353 49.7642 137.232 49.7642 138.373C49.7642 139.515 49.5495 140.381 49.1214 141Z" fill="#141414" fill-opacity="0.8"/>
<path d="M60.8344 141.523C60.1961 141.523 59.7146 141.442 59.3901 141.28C59.2351 141.206 59.0968 141.102 58.984 140.972C58.8711 140.843 58.786 140.692 58.734 140.528C58.6092 140.103 58.552 139.66 58.5646 139.217V126.489H53.8037V129.513H55.2867V139.333C55.2867 141.289 55.645 142.712 56.3615 143.601C57.0781 144.49 58.2455 144.934 59.8636 144.934C60.5491 144.937 61.2342 144.896 61.9146 144.813C62.5858 144.725 63.2508 144.596 63.9057 144.425L63.5296 141.049C62.4458 141.365 61.5474 141.523 60.8344 141.523Z" fill="#141414" fill-opacity="0.8"/>
<path d="M71.2032 130.203C71.4828 130.218 71.7623 130.173 72.0237 130.073C72.285 129.972 72.5224 129.818 72.7203 129.62C72.9183 129.422 73.0725 129.185 73.173 128.924C73.2735 128.662 73.318 128.383 73.3036 128.103C73.318 127.823 73.2735 127.544 73.173 127.283C73.0725 127.021 72.9183 126.784 72.7203 126.586C72.5224 126.388 72.285 126.234 72.0237 126.133C71.7623 126.033 71.4828 125.988 71.2032 126.003C70.9236 125.992 70.6447 126.038 70.3835 126.138C70.1223 126.238 69.8844 126.391 69.6842 126.587C69.489 126.787 69.3366 127.025 69.2364 127.285C69.1362 127.546 69.0903 127.825 69.1014 128.104C69.0873 128.384 69.1319 128.664 69.2326 128.925C69.3332 129.186 69.4876 129.423 69.6857 129.621C69.8838 129.819 70.1212 129.973 70.3826 130.073C70.644 130.174 70.9236 130.218 71.2032 130.203Z" fill="#141414" fill-opacity="0.8"/>
<path d="M73.1436 134.974V132.667V131.938H67.6612V134.974H69.8669V141.771H65.4487V144.806H69.8669H70.1096H72.9009H73.1436H76.9563V141.771H73.1436V134.974Z" fill="#141414" fill-opacity="0.8"/>
<path d="M86.4889 134.27H86.2596C86.1057 133.405 85.7759 132.759 85.27 132.333C84.7641 131.907 84.0218 131.695 83.0429 131.696C81.4319 131.696 80.1837 132.279 79.2982 133.444C78.4127 134.61 77.9682 136.257 77.9646 138.385C77.9646 140.53 78.4091 142.174 79.2982 143.319C80.1873 144.465 81.4275 145.039 83.0189 145.044C83.9169 145.044 84.637 144.829 85.1793 144.401C85.7217 143.972 86.0573 143.329 86.1862 142.47H86.4529V144.057C86.4529 145.213 86.1978 146.088 85.6874 146.684C85.1771 147.28 84.3556 147.594 83.223 147.626L79.0968 147.747L79.2182 150.611L82.9802 150.49C85.3354 150.409 87.0513 149.825 88.1279 148.736C89.2046 147.648 89.7424 145.959 89.7416 143.669V131.939H86.697L86.4889 134.27ZM85.9008 141.104C85.5327 141.672 84.8793 141.955 83.9404 141.954C83.0834 141.954 82.4339 141.654 81.9921 141.055C81.5502 140.456 81.3279 139.567 81.3253 138.388C81.3253 137.246 81.552 136.362 82.0054 135.735C82.4588 135.108 83.102 134.795 83.9351 134.794C84.777 134.794 85.4065 135.081 85.8235 135.657C86.2404 136.232 86.4489 137.142 86.4489 138.388C86.4525 139.632 86.2698 140.537 85.9008 141.104Z" fill="#141414" fill-opacity="0.8"/>
<path d="M101.876 132.935C101.132 132.109 100.08 131.696 98.7204 131.696C97.7647 131.696 97.0534 131.908 96.5867 132.333C96.1199 132.758 95.8247 133.404 95.7012 134.27H95.3358L95.033 131.939H92.0991V144.806H95.3878V138.385C95.3878 136.006 96.2133 134.816 97.8642 134.816C98.4546 134.816 98.9098 135.027 99.2298 135.447C99.5499 135.869 99.7099 136.466 99.7099 137.244V144.806H103V136.43C102.991 134.925 102.616 133.76 101.876 132.935Z" fill="#141414" fill-opacity="0.8"/>
<defs>
<filter id="filter0_d_701_2821" x="0.668085" y="0.668085" width="116.153" height="108.664" filterUnits="userSpaceOnUse" color-interpolation-filters="sRGB">
<feFlood flood-opacity="0" result="BackgroundImageFix"/>
<feColorMatrix in="SourceAlpha" type="matrix" values="0 0 0 0 0 0 0 0 0 0 0 0 0 0 0 0 0 0 127 0" result="hardAlpha"/>
<feMorphology radius="2.04255" operator="dilate" in="SourceAlpha" result="effect1_dropShadow_701_2821"/>
<feOffset dy="1"/>
<feGaussianBlur stdDeviation="2.14468"/>
<feComposite in2="hardAlpha" operator="out"/>
<feColorMatrix type="matrix" values="0 0 0 0 1 0 0 0 0 0.231373 0 0 0 0 0.054902 0 0 0 0.15 0"/>
<feBlend mode="normal" in2="BackgroundImageFix" result="effect1_dropShadow_701_2821"/>
<feBlend mode="normal" in="SourceGraphic" in2="effect1_dropShadow_701_2821" result="shape"/>
</filter>
</defs>
</svg>
