<svg width="32" height="32" viewBox="0 0 32 32" fill="none" xmlns="http://www.w3.org/2000/svg">
<g id="Frame" clip-path="url(#clip0_585_2853)">
<path id="Vector" d="M4 9.33341C4 8.62617 4.28095 7.94789 4.78105 7.4478C5.28115 6.9477 5.95942 6.66675 6.66667 6.66675H25.3333C26.0406 6.66675 26.7189 6.9477 27.219 7.4478C27.719 7.94789 28 8.62617 28 9.33341V22.6667C28 23.374 27.719 24.0523 27.219 24.5524C26.7189 25.0525 26.0406 25.3334 25.3333 25.3334H6.66667C5.95942 25.3334 5.28115 25.0525 4.78105 24.5524C4.28095 24.0523 4 23.374 4 22.6667V9.33341Z" stroke="#141414" stroke-width="2" stroke-linecap="round" stroke-linejoin="round"/>
<path id="Vector_2" d="M4 9.33325L16 17.3333L28 9.33325" stroke="#141414" stroke-width="2" stroke-linecap="round" stroke-linejoin="round"/>
</g>
<defs>
<clipPath id="clip0_585_2853">
<rect width="32" height="32" fill="white"/>
</clipPath>
</defs>
</svg>
