<svg width="117" height="110" viewBox="0 0 117 110" fill="none" xmlns="http://www.w3.org/2000/svg">
<g filter="url(#filter0_d_393_1641)">
<rect x="7" y="6" width="103.489" height="96" rx="13.617" fill="#FF3B0E"/>
<rect x="7.34043" y="6.34043" width="102.809" height="95.3191" rx="13.2766" stroke="white" stroke-width="0.680851"/>
<path d="M94.8375 61.249L91.1548 58.4568L93.8354 56.4339L95.1322 55.4536L93.8354 54.4856L90.5157 51.9757L92.4951 50.4834L90.9811 49.3386L84.5745 44.4801L63.0867 28.2262L61.7929 27.2427L61.2159 26.8083L58.7339 24.9282L58.0575 24.4163L56.7576 23.4359L53.5124 20.9788L30.098 38.6629L22.0718 44.7345L25.317 47.1885L23.2756 48.7398L21.9788 49.714L23.2756 50.6943L26.4339 53.0833L27.011 53.5238L24.3335 55.5466L23.0336 56.527L24.3335 57.5105L45.8182 73.7644L53.7389 79.7553L57.0554 82.2652L58.3554 83.2487L62.0318 86.0409L63.3318 87.0213L64.6317 86.044L67.3091 84.0181L68.6091 83.0284L94.8344 63.216L96.1281 62.2418L94.8375 61.249ZM88.6139 53.4059L89.2189 52.9467L92.5354 55.4598L89.858 57.4826L87.0006 55.3108L86.5414 54.9634L88.6139 53.4059ZM53.9623 32.2873L54.5548 32.7248L54.9985 33.0598C54.8806 33.5593 54.7782 34.0681 54.6882 34.58C54.2966 36.9217 54.2516 39.3083 54.5548 41.663C55.5383 49.3075 59.9252 55.5714 65.7238 58.7267L61.1476 62.1828L39.6784 45.9165L38.3785 44.933L37.8014 44.4956L53.9623 32.2873ZM53.1339 68.2327L61.07 74.2298L69.0993 68.1613L80.0293 59.9025L85.257 55.9531L85.8775 56.4215L88.5736 58.463L72.4158 70.6712L64.3866 76.7397L62.3483 78.2909L59.0286 75.781L51.0925 69.7746L29.6078 53.5238L31.6492 51.9726L53.1339 68.2327ZM24.5911 49.714L26.6294 48.1627L29.7908 50.5516L30.3555 50.9984L28.314 52.5496L27.737 52.1122L24.5911 49.714ZM69.2668 80.5868L67.334 82.0449L66.0123 83.0284L63.3318 85.0543L59.6491 82.2621L58.3554 81.2817L55.0357 78.7687L47.1089 72.7902L25.6335 56.527L28.3109 54.5042L49.7956 70.7581L57.7163 76.749L61.0359 79.2589L62.3328 80.2424L63.6296 79.262L65.671 77.7108L73.6971 71.6454L89.858 59.4496L93.5375 62.2418L69.2668 80.5868Z" fill="white"/>
</g>
<defs>
<filter id="filter0_d_393_1641" x="0.668085" y="0.668085" width="116.153" height="108.664" filterUnits="userSpaceOnUse" color-interpolation-filters="sRGB">
<feFlood flood-opacity="0" result="BackgroundImageFix"/>
<feColorMatrix in="SourceAlpha" type="matrix" values="0 0 0 0 0 0 0 0 0 0 0 0 0 0 0 0 0 0 127 0" result="hardAlpha"/>
<feMorphology radius="2.04255" operator="dilate" in="SourceAlpha" result="effect1_dropShadow_393_1641"/>
<feOffset dy="1"/>
<feGaussianBlur stdDeviation="2.14468"/>
<feComposite in2="hardAlpha" operator="out"/>
<feColorMatrix type="matrix" values="0 0 0 0 1 0 0 0 0 0.231373 0 0 0 0 0.054902 0 0 0 0.15 0"/>
<feBlend mode="normal" in2="BackgroundImageFix" result="effect1_dropShadow_393_1641"/>
<feBlend mode="normal" in="SourceGraphic" in2="effect1_dropShadow_393_1641" result="shape"/>
</filter>
</defs>
</svg>
